<svg width="143" height="141" viewBox="0 0 143 141" fill="none" xmlns="http://www.w3.org/2000/svg">
<rect x="1.5" y="1.5" width="140" height="138" rx="30.5" fill="#FFF0D3" stroke="#FFB74D" stroke-width="3"/>
<ellipse cx="87.5987" cy="70.0076" rx="16.7285" ry="42.083" transform="rotate(18.8465 87.5987 70.0076)" fill="#FE3636"/>
<ellipse cx="71.8169" cy="101.633" rx="12.6867" ry="27.4337" transform="rotate(51.1599 71.8169 101.633)" fill="#FE3636"/>
<ellipse cx="50.3722" cy="116.065" rx="9.28206" ry="21.8502" transform="rotate(77.0716 50.3722 116.065)" fill="#FE3636"/>
<path d="M100.693 39.1938C97.4126 41.9495 92.4123 39.5736 92.4771 35.29L92.5006 33.7328C92.5556 30.0927 96.3578 27.7298 99.6459 29.2922L100.815 29.8476C104.103 31.41 104.673 35.8503 101.885 38.192L100.693 39.1938Z" fill="#4FD74F"/>
<path d="M113.957 15.9827L108.828 14.9966L96.8718 35.1964" stroke="#4FD74F" stroke-width="4" stroke-linecap="round"/>
<ellipse cx="101.269" cy="59.863" rx="1.57811" ry="3.41925" transform="rotate(16.641 101.269 59.863)" fill="#D9D9D9"/>
<ellipse cx="101.081" cy="66.0921" rx="1.57811" ry="2.23425" transform="rotate(16.641 101.081 66.0921)" fill="#D9D9D9"/>
</svg>
