<svg width="143" height="141" viewBox="0 0 143 141" fill="none" xmlns="http://www.w3.org/2000/svg">
<rect x="1.5" y="1.5" width="140" height="138" rx="30.5" fill="#FFF0D3" stroke="#FFB74D" stroke-width="3"/>
<circle cx="71.2216" cy="70.5556" r="35.0556" fill="#FF6347" stroke="#FF3B17" stroke-width="9"/>
<circle cx="71.2216" cy="70.5556" r="35.0556" fill="#4FD74F" stroke="#4EB74E" stroke-width="9"/>
<path d="M65.1669 76.6175C66.8324 72.2618 73.0853 72.5356 74.576 77.0296L79.6904 92.4476C80.7872 95.7539 78.3079 99.0723 74.854 98.921L64.0258 98.4468C60.5719 98.2955 58.2278 94.7659 59.4531 91.5614L65.1669 76.6175Z" fill="#4EB74E"/>
<ellipse cx="69.7637" cy="86.9207" rx="1.44336" ry="4.02595" fill="#B4FFAA"/>
<ellipse cx="69.7637" cy="86.9207" rx="1.44336" ry="4.02595" fill="url(#paint0_linear_489_584)" fill-opacity="0.2"/>
<ellipse cx="1.53379" cy="3.90692" rx="1.53379" ry="3.90692" transform="matrix(0.889731 -0.456486 0.225348 0.974278 72.8105 83.5564)" fill="#B4FFAA"/>
<ellipse cx="1.53379" cy="3.90692" rx="1.53379" ry="3.90692" transform="matrix(0.889731 -0.456486 0.225348 0.974278 72.8105 83.5564)" fill="url(#paint1_linear_489_584)" fill-opacity="0.2"/>
<ellipse cx="1.497" cy="3.95665" rx="1.497" ry="3.95665" transform="matrix(0.933722 0.357998 -0.170322 0.985388 64.2871 81.7026)" fill="#B4FFAA"/>
<ellipse cx="1.497" cy="3.95665" rx="1.497" ry="3.95665" transform="matrix(0.933722 0.357998 -0.170322 0.985388 64.2871 81.7026)" fill="url(#paint2_linear_489_584)" fill-opacity="0.2"/>
<path d="M68.4353 61.6538C71.2364 65.382 67.6764 70.53 63.0784 69.4001L47.3035 65.5236C43.9208 64.6923 42.431 60.8272 44.3974 57.9837L50.5622 49.069C52.5287 46.2255 56.7644 46.1197 58.8252 48.8626L68.4353 61.6538Z" fill="#4EB74E"/>
<ellipse cx="57.2629" cy="60.0581" rx="1.44336" ry="4.02595" transform="rotate(122.158 57.2629 60.0581)" fill="#B4FFAA"/>
<ellipse cx="57.2629" cy="60.0581" rx="1.44336" ry="4.02595" transform="rotate(122.158 57.2629 60.0581)" fill="url(#paint3_linear_489_584)" fill-opacity="0.2"/>
<ellipse cx="1.53379" cy="3.90692" rx="1.53379" ry="3.90692" transform="matrix(-0.0871035 0.996199 -0.944753 -0.327783 58.4863 64.429)" fill="#B4FFAA"/>
<ellipse cx="1.53379" cy="3.90692" rx="1.53379" ry="3.90692" transform="matrix(-0.0871035 0.996199 -0.944753 -0.327783 58.4863 64.429)" fill="url(#paint4_linear_489_584)" fill-opacity="0.2"/>
<ellipse cx="1.497" cy="3.95665" rx="1.497" ry="3.95665" transform="matrix(-0.80005 0.599933 -0.743563 -0.668666 64.5957 58.1992)" fill="#B4FFAA"/>
<ellipse cx="1.497" cy="3.95665" rx="1.497" ry="3.95665" transform="matrix(-0.80005 0.599933 -0.743563 -0.668666 64.5957 58.1992)" fill="url(#paint5_linear_489_584)" fill-opacity="0.2"/>
<path d="M80.3967 69.7136C75.8456 70.73 72.6214 65.3653 75.5453 61.6412L85.5764 48.8643C87.7275 46.1244 91.8631 46.3593 93.644 49.3226L99.2272 58.6125C101.008 61.5758 99.3594 65.479 96.0111 66.2267L80.3967 69.7136Z" fill="#4EB74E"/>
<ellipse cx="86.4289" cy="60.1961" rx="1.44336" ry="4.02595" transform="rotate(-123.513 86.4289 60.1961)" fill="#B4FFAA"/>
<ellipse cx="86.4289" cy="60.1961" rx="1.44336" ry="4.02595" transform="rotate(-123.513 86.4289 60.1961)" fill="url(#paint6_linear_489_584)" fill-opacity="0.2"/>
<ellipse cx="1.53379" cy="3.90692" rx="1.53379" ry="3.90692" transform="matrix(-0.871845 -0.489782 0.687892 -0.725812 81.9434 59.5115)" fill="#B4FFAA"/>
<ellipse cx="1.53379" cy="3.90692" rx="1.53379" ry="3.90692" transform="matrix(-0.871845 -0.489782 0.687892 -0.725812 81.9434 59.5115)" fill="url(#paint7_linear_489_584)" fill-opacity="0.2"/>
<ellipse cx="1.497" cy="3.95665" rx="1.497" ry="3.95665" transform="matrix(-0.21705 -0.97616 0.915617 -0.402053 85.1113 67.6418)" fill="#B4FFAA"/>
<ellipse cx="1.497" cy="3.95665" rx="1.497" ry="3.95665" transform="matrix(-0.21705 -0.97616 0.915617 -0.402053 85.1113 67.6418)" fill="url(#paint8_linear_489_584)" fill-opacity="0.2"/>
<defs>
<linearGradient id="paint0_linear_489_584" x1="69.7637" y1="82.8948" x2="69.7637" y2="90.9467" gradientUnits="userSpaceOnUse">
<stop offset="0.375" stop-opacity="0"/>
<stop offset="0.855769" stop-color="#4EB74E"/>
</linearGradient>
<linearGradient id="paint1_linear_489_584" x1="1.53379" y1="0" x2="1.53379" y2="7.81384" gradientUnits="userSpaceOnUse">
<stop offset="0.375" stop-opacity="0"/>
<stop offset="0.855769" stop-color="#4EB74E"/>
</linearGradient>
<linearGradient id="paint2_linear_489_584" x1="1.497" y1="0" x2="1.497" y2="7.9133" gradientUnits="userSpaceOnUse">
<stop offset="0.375" stop-opacity="0"/>
<stop offset="0.855769" stop-color="#4EB74E"/>
</linearGradient>
<linearGradient id="paint3_linear_489_584" x1="57.2629" y1="56.0322" x2="57.2629" y2="64.0841" gradientUnits="userSpaceOnUse">
<stop offset="0.375" stop-opacity="0"/>
<stop offset="0.855769" stop-color="#4EB74E"/>
</linearGradient>
<linearGradient id="paint4_linear_489_584" x1="1.53379" y1="0" x2="1.53379" y2="7.81384" gradientUnits="userSpaceOnUse">
<stop offset="0.375" stop-opacity="0"/>
<stop offset="0.855769" stop-color="#4EB74E"/>
</linearGradient>
<linearGradient id="paint5_linear_489_584" x1="1.497" y1="0" x2="1.497" y2="7.9133" gradientUnits="userSpaceOnUse">
<stop offset="0.375" stop-opacity="0"/>
<stop offset="0.855769" stop-color="#4EB74E"/>
</linearGradient>
<linearGradient id="paint6_linear_489_584" x1="86.4289" y1="56.1701" x2="86.4289" y2="64.222" gradientUnits="userSpaceOnUse">
<stop offset="0.375" stop-opacity="0"/>
<stop offset="0.855769" stop-color="#4EB74E"/>
</linearGradient>
<linearGradient id="paint7_linear_489_584" x1="1.53379" y1="0" x2="1.53379" y2="7.81384" gradientUnits="userSpaceOnUse">
<stop offset="0.375" stop-opacity="0"/>
<stop offset="0.855769" stop-color="#4EB74E"/>
</linearGradient>
<linearGradient id="paint8_linear_489_584" x1="1.497" y1="0" x2="1.497" y2="7.9133" gradientUnits="userSpaceOnUse">
<stop offset="0.375" stop-opacity="0"/>
<stop offset="0.855769" stop-color="#4EB74E"/>
</linearGradient>
</defs>
</svg>
