<svg width="81" height="106" viewBox="0 0 81 106" fill="none" xmlns="http://www.w3.org/2000/svg">
<ellipse cx="54.4983" cy="51.6987" rx="15.0433" ry="37.8437" transform="rotate(18.8465 54.4983 51.6987)" fill="#FE3636"/>
<ellipse cx="40.3027" cy="80.1381" rx="11.4087" ry="24.6701" transform="rotate(51.1599 40.3027 80.1381)" fill="#FE3636"/>
<ellipse cx="21.0193" cy="93.1161" rx="8.34702" ry="19.6491" transform="rotate(77.0716 21.0193 93.1161)" fill="#FE3636"/>
<path d="M66.8998 23.4626C63.7048 26.1468 58.8343 23.8324 58.8973 19.6601V19.6601C58.9509 16.1145 62.6544 13.8129 65.8572 15.3347V15.3347C69.06 16.8566 69.6148 21.1816 66.8998 23.4626V23.4626Z" fill="#4FD74F"/>
<path d="M78.1992 3.11646L73.5865 2.22968L62.8351 20.3947" stroke="#4FD74F" stroke-width="4" stroke-linecap="round"/>
<ellipse cx="66.7878" cy="42.5758" rx="1.41914" ry="3.0748" transform="rotate(16.641 66.7878 42.5758)" fill="#D9D9D9"/>
<ellipse cx="66.6203" cy="48.1776" rx="1.41914" ry="2.00918" transform="rotate(16.641 66.6203 48.1776)" fill="#D9D9D9"/>
</svg>
