<svg width="118" height="121" viewBox="0 0 118 121" fill="none" xmlns="http://www.w3.org/2000/svg">
<g filter="url(#filter0_d_489_605)">
<path d="M48.5 6.06218C54.9974 2.31089 63.0026 2.31089 69.5 6.06218L99.5955 23.4378C106.093 27.1891 110.095 34.1218 110.095 41.6244V76.3756C110.095 83.8782 106.093 90.8109 99.5955 94.5622L69.5 111.938C63.0026 115.689 54.9974 115.689 48.5 111.938L18.4045 94.5622C11.9071 90.8109 7.9045 83.8782 7.9045 76.3756V41.6244C7.9045 34.1218 11.9071 27.1891 18.4045 23.4378L48.5 6.06218Z" fill="#F5F5DC"/>
<path d="M50 8.66016C55.5692 5.4448 62.4308 5.4448 68 8.66016L98.0957 26.0361C103.665 29.2515 107.096 35.1935 107.096 41.624V76.376C107.096 82.8065 103.665 88.7485 98.0957 91.9639L68 109.34C62.6047 112.455 55.9964 112.552 50.5254 109.632L50 109.34L19.9043 91.9639C14.3353 88.7485 10.9044 82.8065 10.9043 76.376V41.624C10.9044 35.1935 14.3353 29.2515 19.9043 26.0361L50 8.66016Z" stroke="#D7C66A" stroke-width="6"/>
</g>
<circle cx="60.6858" cy="35.9619" r="8.99048" fill="#E5E595"/>
<circle cx="44.9538" cy="52.8191" r="4.86984" fill="#E5E595"/>
<circle cx="35.2116" cy="76.4192" r="4.86984" fill="#E5E595"/>
<circle cx="81.6648" cy="71.5493" r="4.86984" fill="#E5E595"/>
<circle cx="61.9958" cy="66.8669" r="7.67937" fill="#E5E595"/>
<circle cx="93.2768" cy="46.0761" r="11.6127" fill="#E5E595"/>
<circle cx="26.7849" cy="35.7746" r="5.80635" fill="#E5E595"/>
<circle cx="47.0114" cy="93.8381" r="5.80635" fill="#E5E595"/>
<circle cx="67.9899" cy="93.0891" r="5.80635" fill="#E5E595"/>
<circle cx="89.5307" cy="86.1587" r="7.86667" fill="#E5E595"/>
<circle cx="22.1042" cy="62.1843" r="4.86984" fill="#E5E595"/>
<circle cx="47.9499" cy="20.9778" r="4.86984" fill="#E5E595"/>
<defs>
<filter id="filter0_d_489_605" x="7.9043" y="3.24866" width="102.191" height="117.503" filterUnits="userSpaceOnUse" color-interpolation-filters="sRGB">
<feFlood flood-opacity="0" result="BackgroundImageFix"/>
<feColorMatrix in="SourceAlpha" type="matrix" values="0 0 0 0 0 0 0 0 0 0 0 0 0 0 0 0 0 0 127 0" result="hardAlpha"/>
<feOffset dy="6"/>
<feComposite in2="hardAlpha" operator="out"/>
<feColorMatrix type="matrix" values="0 0 0 0 0.843137 0 0 0 0 0.776471 0 0 0 0 0.415686 0 0 0 0.25 0"/>
<feBlend mode="normal" in2="BackgroundImageFix" result="effect1_dropShadow_489_605"/>
<feBlend mode="normal" in="SourceGraphic" in2="effect1_dropShadow_489_605" result="shape"/>
</filter>
</defs>
</svg>
