<svg width="292" height="290" viewBox="0 0 292 290" fill="none" xmlns="http://www.w3.org/2000/svg">
<path fill-rule="evenodd" clip-rule="evenodd" d="M145.981 0C92.1185 0 48.4375 43.6695 48.4375 97.544C48.4375 140.64 76.3858 177.205 115.144 190.101C120.019 191.005 121.809 187.985 121.809 185.408C121.809 183.083 121.718 175.398 121.676 167.25C94.5373 173.149 88.8124 155.74 88.8124 155.74C84.376 144.465 77.9816 141.466 77.9816 141.466C69.1316 135.413 78.6464 135.537 78.6464 135.537C88.4433 136.225 93.6019 145.59 93.6019 145.59C102.3 160.502 116.421 156.19 121.986 153.697C122.864 147.392 125.391 143.087 128.181 140.652C106.515 138.187 83.7386 129.821 83.7386 92.445C83.7386 81.7952 87.5491 73.0944 93.7899 66.262C92.7765 63.8042 89.4383 53.8813 94.7345 40.446C94.7345 40.446 102.924 37.8277 121.559 50.4491C129.343 48.2871 137.689 47.2026 145.977 47.1659C154.267 47.2049 162.617 48.2894 170.413 50.4491C189.03 37.83 197.21 40.4483 197.21 40.4483C202.52 53.8836 199.182 63.8042 198.168 66.2643C204.423 73.0921 208.206 81.7952 208.206 92.4472C208.206 129.91 185.387 138.16 163.665 140.572C167.164 143.598 170.282 149.536 170.282 158.638C170.282 171.688 170.172 182.191 170.172 185.403C170.172 187.994 171.928 191.039 176.871 190.081C215.609 177.168 243.521 140.617 243.521 97.5348C243.525 43.6718 199.854 0 145.981 0Z" fill="#C3A175"/>
<path d="M85.3863 140.049C85.1685 140.535 84.405 140.679 83.7126 140.347C83.0018 140.026 82.6075 139.368 82.8368 138.879C83.0431 138.384 83.8089 138.244 84.5173 138.577C85.2281 138.898 85.6293 139.563 85.3863 140.049ZM89.3366 144.46C88.8712 144.889 87.961 144.689 87.342 144.006C86.7046 143.325 86.5854 142.415 87.0577 141.979C87.5345 141.548 88.4172 141.75 89.0523 142.431C89.6943 143.119 89.8204 144.02 89.3343 144.458L89.3366 144.46ZM93.1815 150.073C92.5854 150.49 91.6064 150.1 91.0034 149.231C90.4027 148.367 90.4027 147.328 91.0149 146.909C91.6202 146.491 92.5831 146.867 93.193 147.727C93.7937 148.61 93.7937 149.651 93.1815 150.073ZM98.4502 155.502C97.916 156.091 96.7765 155.933 95.9443 155.128C95.0914 154.342 94.8552 153.225 95.3894 152.636C95.9328 152.047 97.0769 152.212 97.916 153.01C98.7643 153.794 99.0211 154.915 98.4502 155.502ZM105.723 158.652C105.484 159.418 104.388 159.764 103.283 159.441C102.178 159.106 101.458 158.212 101.678 157.441C101.908 156.671 103.013 156.311 104.125 156.657C105.225 156.987 105.95 157.872 105.723 158.652ZM113.701 159.237C113.731 160.039 112.793 160.709 111.633 160.722C110.469 160.75 109.524 160.099 109.51 159.305C109.51 158.494 110.427 157.833 111.592 157.815C112.752 157.792 113.701 158.439 113.701 159.237ZM121.13 157.973C121.267 158.757 120.465 159.564 119.312 159.778C118.179 159.989 117.134 159.503 116.987 158.723C116.849 157.921 117.668 157.118 118.798 156.907C119.951 156.705 120.983 157.175 121.13 157.973Z" fill="#C3A175"/>
<path d="M56.2337 244.84H31.7015C31.3975 244.84 31.1059 244.961 30.8909 245.176C30.6759 245.391 30.5551 245.683 30.5551 245.987V257.982C30.5551 258.286 30.6759 258.578 30.8909 258.793C31.1059 259.008 31.3975 259.128 31.7015 259.128H41.269V274.031C41.269 274.031 39.1208 274.765 33.1757 274.765C26.1692 274.765 16.3769 272.206 16.3769 250.673C16.3769 229.137 26.575 226.301 36.1494 226.301C44.4353 226.301 48.0028 227.759 50.2772 228.463C50.9879 228.679 51.6528 227.968 51.6528 227.335L54.388 215.746C54.3924 215.572 54.3547 215.4 54.278 215.244C54.2014 215.088 54.088 214.954 53.9478 214.851C53.0238 214.191 47.3975 211.045 33.1803 211.045C16.8011 211.045 0 218.011 0 251.512C0 285.009 19.236 290 35.4455 290C48.8671 290 57.0086 284.264 57.0086 284.264C57.3433 284.08 57.38 283.61 57.38 283.392V245.984C57.38 245.68 57.2592 245.389 57.0443 245.174C56.8293 244.959 56.5377 244.84 56.2337 244.84ZM181.533 213.907H167.717C167.567 213.907 167.418 213.938 167.278 213.996C167.139 214.054 167.013 214.139 166.907 214.247C166.801 214.354 166.717 214.481 166.66 214.62C166.604 214.76 166.575 214.909 166.576 215.06L166.58 241.756H145.047V215.06C145.048 214.909 145.019 214.76 144.962 214.621C144.906 214.481 144.822 214.354 144.716 214.247C144.61 214.14 144.484 214.055 144.346 213.997C144.207 213.938 144.058 213.908 143.907 213.907H130.094C129.943 213.907 129.794 213.938 129.655 213.996C129.516 214.054 129.39 214.139 129.284 214.247C129.178 214.354 129.094 214.481 129.037 214.62C128.98 214.76 128.951 214.909 128.952 215.06V287.35C128.952 287.985 129.466 288.503 130.094 288.503H143.907C144.058 288.502 144.207 288.471 144.346 288.413C144.485 288.354 144.611 288.269 144.717 288.161C144.823 288.054 144.906 287.927 144.963 287.787C145.02 287.648 145.048 287.498 145.047 287.347V256.428H166.58L166.544 287.347C166.544 287.985 167.057 288.503 167.69 288.503H181.533C181.684 288.502 181.833 288.471 181.972 288.413C182.111 288.354 182.237 288.269 182.343 288.161C182.449 288.054 182.532 287.927 182.589 287.787C182.645 287.648 182.674 287.498 182.673 287.347V215.058C182.673 214.42 182.168 213.907 181.533 213.907ZM73.3947 215.551C68.4791 215.551 64.4898 219.57 64.4898 224.545C64.4898 229.513 68.4791 233.544 73.3947 233.544C78.3149 233.544 82.3019 229.513 82.3019 224.545C82.3019 219.57 78.3126 215.551 73.3947 215.551ZM80.172 237.579H66.4019C65.7691 237.579 65.2051 238.23 65.2051 238.863V286.671C65.2051 288.076 66.0809 288.494 67.2135 288.494H79.6172C80.9813 288.494 81.3138 287.824 81.3138 286.648V272.098V238.732C81.3144 238.582 81.2853 238.433 81.2283 238.293C81.1712 238.154 81.0873 238.027 80.9813 237.92C80.8752 237.814 80.7492 237.729 80.6103 237.67C80.4715 237.612 80.3225 237.58 80.172 237.579ZM235.174 237.687H221.463C221.313 237.688 221.164 237.719 221.025 237.778C220.887 237.836 220.761 237.922 220.656 238.029C220.55 238.136 220.466 238.263 220.41 238.403C220.353 238.543 220.325 238.692 220.326 238.842V274.288C220.326 274.288 216.841 276.833 211.9 276.833C206.96 276.833 205.648 274.593 205.648 269.753V238.842C205.649 238.692 205.621 238.542 205.564 238.402C205.508 238.263 205.424 238.136 205.318 238.028C205.212 237.921 205.086 237.836 204.947 237.777C204.809 237.718 204.659 237.688 204.509 237.687H190.596C190.292 237.689 190.001 237.812 189.787 238.029C189.573 238.245 189.453 238.538 189.455 238.842V272.092C189.455 286.467 197.468 289.984 208.489 289.984C217.531 289.984 224.822 284.986 224.822 284.986C224.822 284.986 225.166 287.622 225.327 287.932C225.487 288.244 225.893 288.558 226.335 288.558L235.185 288.519C235.337 288.518 235.486 288.488 235.625 288.43C235.765 288.371 235.891 288.286 235.998 288.179C236.104 288.071 236.189 287.944 236.246 287.804C236.303 287.664 236.332 287.514 236.332 287.363L236.325 238.836C236.324 238.531 236.203 238.24 235.988 238.025C235.773 237.809 235.483 237.687 235.179 237.685L235.174 237.687ZM272.642 236.064C264.856 236.064 259.559 239.537 259.559 239.537V215.058C259.56 214.907 259.531 214.758 259.475 214.618C259.418 214.479 259.334 214.352 259.228 214.245C259.123 214.138 258.997 214.053 258.858 213.994C258.719 213.936 258.57 213.905 258.42 213.904H244.57C244.418 213.904 244.269 213.934 244.129 213.992C243.99 214.05 243.863 214.135 243.756 214.243C243.65 214.35 243.566 214.477 243.508 214.617C243.451 214.757 243.422 214.907 243.423 215.058V287.347C243.422 287.498 243.451 287.648 243.508 287.788C243.566 287.928 243.65 288.055 243.756 288.162C243.863 288.27 243.99 288.355 244.129 288.413C244.269 288.471 244.418 288.501 244.57 288.501H254.181C254.616 288.501 254.942 288.278 255.183 287.886C255.419 287.496 255.765 284.552 255.765 284.552C255.765 284.552 261.428 289.917 272.153 289.917C284.74 289.917 291.962 283.534 291.962 261.254C291.962 238.973 280.43 236.061 272.639 236.061L272.642 236.064ZM267.231 276.792C262.478 276.647 259.252 274.49 259.252 274.49V251.597C259.252 251.597 262.434 249.648 266.337 249.295C271.273 248.852 276.03 250.345 276.03 262.12C276.03 274.54 273.887 276.991 267.233 276.789L267.231 276.792ZM121.209 276.521C120.606 276.521 119.061 276.766 117.472 276.766C112.382 276.766 110.656 274.4 110.656 271.337V251.01H121.019C121.17 251.01 121.32 250.98 121.46 250.922C121.6 250.864 121.726 250.778 121.833 250.671C121.94 250.563 122.024 250.436 122.081 250.296C122.138 250.156 122.167 250.006 122.166 249.854V238.721C122.166 238.57 122.137 238.42 122.08 238.281C122.022 238.141 121.938 238.014 121.831 237.907C121.725 237.8 121.598 237.716 121.459 237.658C121.32 237.6 121.17 237.57 121.019 237.57H110.656L110.64 223.882C110.64 223.362 110.374 223.103 109.773 223.103H95.6502C95.1045 223.103 94.8088 223.346 94.8088 223.871V238.017C94.8088 238.017 87.7311 239.725 87.2542 239.863C87.0161 239.932 86.8069 240.077 86.6581 240.275C86.5093 240.474 86.4288 240.715 86.4288 240.963V249.852C86.4279 250.003 86.4567 250.152 86.5135 250.291C86.5702 250.431 86.6539 250.558 86.7597 250.665C86.8655 250.772 86.9914 250.857 87.1302 250.915C87.2689 250.974 87.4178 251.004 87.5683 251.005H94.8088V272.392C94.8088 288.28 105.951 289.839 113.472 289.839C116.904 289.839 121.015 288.739 121.693 288.487C122.106 288.333 122.342 287.909 122.342 287.448L122.351 277.67C122.347 277.367 122.224 277.077 122.011 276.863C121.797 276.648 121.508 276.525 121.205 276.519L121.209 276.521Z" fill="#C3A175"/>
</svg>
