<svg width="143" height="141" viewBox="0 0 143 141" fill="none" xmlns="http://www.w3.org/2000/svg">
<rect x="1.5" y="1.5" width="140" height="138" rx="30.5" fill="#FFF0D3" stroke="#FFB74D" stroke-width="3"/>
<path d="M95.5293 21.6304L83.2673 31.9527L76.9813 51.6246L62.4008 65.6962L55.4824 86.3907L43.4312 96.3722L39.2529 112.636" stroke="#CD5C5C" stroke-width="5"/>
<path d="M99.7832 24.26L87.5212 34.5823L81.2352 54.2543L66.6547 68.3259L59.7363 89.0203L47.6851 99.0018L43.5068 115.265" stroke="#DE8585" stroke-width="5"/>
<path d="M104.035 26.8899L91.7732 37.2122L85.4871 56.8841L70.9066 70.9558L63.9883 91.6502L51.9371 101.632L47.7587 117.895" stroke="#CD5C5C" stroke-width="5"/>
<path d="M108.287 29.5195L96.0251 39.8419L89.7391 59.5138L75.1586 73.5854L68.2402 94.2798L56.189 104.261L52.0107 120.525" stroke="#DE8585" stroke-width="5"/>
</svg>
